<?xml version="1.0" standalone="no"?>
<!DOCTYPE svg PUBLIC "-//W3C//DTD SVG 20010904//EN"
 "http://www.w3.org/TR/2001/REC-SVG-20010904/DTD/svg10.dtd">
<svg version="1.0" xmlns="http://www.w3.org/2000/svg"
 width="206.000000pt" height="206.000000pt" viewBox="0 0 206.000000 206.000000"
 preserveAspectRatio="xMidYMid meet">
<metadata>
Created by potrace 1.14, written by Peter Selinger 2001-2017
</metadata>
<g transform="translate(0.000000,206.000000) scale(0.100000,-0.100000)"
fill="#000000" stroke="none">
<path d="M1210 1890 c-25 -4 -61 -10 -80 -14 -81 -14 -160 -34 -139 -35 9 -1
40 4 70 9 56 11 227 14 269 5 14 -2 39 -8 55 -11 17 -4 47 -15 67 -25 138 -70
55 -194 -162 -243 -93 -21 -127 -25 -247 -31 -289 -13 -341 -18 -443 -41 -131
-30 -222 -91 -265 -179 -16 -33 -20 -60 -19 -155 1 -63 4 -130 8 -149 32 -145
135 -368 225 -488 154 -204 283 -247 350 -116 6 13 23 77 36 143 24 116 47
184 66 196 5 3 22 -8 38 -25 29 -31 59 -113 87 -241 21 -92 34 -114 79 -128
124 -38 298 142 379 392 14 40 27 91 31 112 3 22 10 61 14 88 5 27 9 97 9 155
l0 106 -9 -85 c-24 -246 -153 -500 -291 -571 -71 -36 -103 -6 -148 142 -20 64
-39 105 -57 123 -25 25 -68 42 -100 39 -7 0 -27 -1 -44 -2 -46 -2 -93 -56
-109 -123 -26 -111 -51 -147 -103 -148 -90 -1 -231 149 -323 345 -115 244 -73
424 116 496 107 41 287 53 490 34 290 -28 509 25 619 150 61 70 61 158 0 209
-61 51 -131 69 -284 71 -77 2 -160 -1 -185 -5z"/>
<path d="M387 1860 c-36 -31 -68 -98 -81 -170 -3 -19 -8 -46 -11 -60 -9 -44
-15 -178 -7 -140 10 43 54 141 83 181 43 61 148 89 244 66 22 -5 103 -28 180
-49 116 -34 159 -41 250 -44 95 -3 119 0 176 20 37 13 77 31 90 41 20 14 20
16 4 10 -41 -14 -151 -31 -190 -30 -141 7 -222 32 -435 131 -117 55 -157 69
-206 72 -57 4 -63 2 -97 -28z"/>
<path d="M1670 1473 c0 -12 -77 -47 -140 -65 -32 -8 -115 -11 -280 -9 -459 6
-511 5 -580 -13 -192 -49 -241 -187 -158 -444 25 -78 32 -76 14 2 -31 130 -15
242 43 302 37 40 167 73 262 68 349 -18 455 -20 539 -9 73 9 167 41 211 71 47
32 104 92 96 101 -4 3 -7 2 -7 -4z"/>
<path d="M677 274 c-1 -1 -87 -5 -192 -8 -104 -4 -206 -8 -225 -10 -19 -2 -67
-7 -106 -10 -106 -10 -154 -21 -154 -36 0 -10 28 -17 100 -25 30 -4 66 -9 80
-11 172 -26 1537 -26 1679 1 9 1 42 6 74 9 58 7 107 21 107 30 0 10 -75 25
-150 31 -41 3 -88 8 -105 10 -78 10 -365 18 -718 19 -213 1 -389 1 -390 0z"/>
</g>
</svg>
