<svg xmlns="http://www.w3.org/2000/svg" xmlns:xlink="http://www.w3.org/1999/xlink" width="3269" zoomAndPan="magnify" viewBox="0 0 2451.75 999.749992" height="1333" preserveAspectRatio="xMidYMid meet" version="1.0"><defs><clipPath id="6086736183"><path d="M 137 169 L 843 169 L 843 686 L 137 686 Z M 137 169 " clip-rule="nonzero"/></clipPath><clipPath id="5165312902"><path d="M 138.628906 567.441406 C 138.628906 567.441406 121.5625 374.027344 261.511719 261.382812 C 401.460938 148.734375 512.957031 163.53125 576.679688 182.871094 C 640.402344 202.210938 766.683594 276.167969 817.890625 379.710938 C 869.097656 483.253906 823.582031 628.882812 823.582031 632.292969 C 823.582031 635.707031 334.339844 685.773438 334.339844 685.773438 Z M 138.628906 567.441406 " clip-rule="nonzero"/></clipPath><clipPath id="a69c057f56"><path d="M 148 293.476562 L 824 293.476562 L 824 879 L 148 879 Z M 148 293.476562 " clip-rule="nonzero"/></clipPath><clipPath id="02c08867dc"><path d="M 148.144531 563.394531 L 273.648438 380.1875 L 291.84375 399.523438 L 355.554688 293.710938 L 528.148438 546.296875 L 593 470.070312 L 682.886719 597.394531 L 752.289062 512.171875 L 823.378906 611.164062 L 818.285156 680.566406 C 818.285156 680.566406 694.996094 884.894531 507.261719 878.070312 C 319.542969 871.25 239.15625 846.71875 148.128906 563.421875 " clip-rule="nonzero"/></clipPath><clipPath id="ca274170af"><path d="M 170 356 L 352.921875 356 L 352.921875 716 L 170 716 Z M 170 356 " clip-rule="nonzero"/></clipPath><clipPath id="0ae268d4dd"><path d="M 170.5 610.78125 L 201.214844 715.398438 L 280.128906 685.8125 L 309.714844 715.398438 L 339.300781 625.511719 L 327.925781 551.554688 L 315.300781 509.453125 L 352.539062 447.605469 L 344.574219 416.890625 L 352.539062 356.59375 L 320.179688 396.792969 L 291.859375 445.335938 L 267.085938 421.066406 L 241.804688 464.550781 L 221.734375 523.371094 L 236.398438 552.699219 Z M 170.5 610.78125 " clip-rule="nonzero"/></clipPath><clipPath id="c5c4f1480f"><path d="M 516 500.035156 L 593.457031 500.035156 L 593.457031 701 L 516 701 Z M 516 500.035156 " clip-rule="nonzero"/></clipPath><clipPath id="d55e56aa47"><path d="M 517.535156 675.566406 L 516.53125 632.582031 L 542.828125 598.699219 L 552.433594 550.660156 L 591.371094 500.089844 L 582.769531 563.800781 L 593.382812 594.148438 L 591.859375 700.84375 L 557.980469 661.90625 Z M 517.535156 675.566406 " clip-rule="nonzero"/></clipPath><clipPath id="64c6c5c22b"><path d="M 706 552 L 755 552 L 755 676.699219 L 706 676.699219 Z M 706 552 " clip-rule="nonzero"/></clipPath><clipPath id="954f08913c"><path d="M 745.085938 676.070312 L 706.152344 622.972656 L 706.152344 602.75 L 720.3125 594.675781 L 752.167969 552.179688 L 742.058594 612.859375 L 754.191406 637.132812 Z M 745.085938 676.070312 " clip-rule="nonzero"/></clipPath><clipPath id="ace1fa50d3"><path d="M 283 729 L 689 729 L 689 849.285156 L 283 849.285156 Z M 283 729 " clip-rule="nonzero"/></clipPath><clipPath id="60cb64a7cb"><path d="M 283 794.546875 C 283 794.546875 313.289062 793.214844 326.648438 782.070312 C 340.007812 770.925781 389.910156 752.226562 421.085938 767.816406 C 452.261719 783.402344 466.886719 788.582031 493.601562 772.992188 C 520.320312 757.40625 560.507812 731.488281 614.203125 729.761719 C 664.023438 728.144531 671.863281 729.546875 679.433594 733.554688 C 687.003906 737.5625 698.664062 744.890625 672.613281 742.660156 C 646.558594 740.429688 628.308594 743.9375 599.796875 760.871094 C 571.285156 777.804688 565.398438 771.292969 539.117188 790.457031 C 512.832031 809.617188 498.414062 819.785156 488.941406 822.296875 C 480.421875 824.554688 474.089844 828.425781 451.8125 827.082031 C 429.539062 825.734375 418.84375 831.363281 415.285156 845.929688 C 411.722656 860.5 316.835938 822.175781 316.835938 822.175781 Z M 283 794.546875 " clip-rule="nonzero"/></clipPath><clipPath id="bb2e11f111"><path d="M 562 262.21875 L 639 262.21875 L 639 350 L 562 350 Z M 562 262.21875 " clip-rule="nonzero"/></clipPath><clipPath id="50c9b9266f"><path d="M 628.878906 336.359375 C 604.578125 336.359375 584.886719 316.664062 584.886719 292.367188 C 584.886719 280.882812 589.289062 270.417969 596.507812 262.589844 C 576.84375 266.980469 562.136719 284.523438 562.136719 305.523438 C 562.136719 329.820312 581.828125 349.511719 606.128906 349.511719 C 618.945312 349.511719 630.46875 344.035156 638.5 335.296875 C 635.402344 335.992188 632.179688 336.371094 628.878906 336.371094 " clip-rule="nonzero"/></clipPath><clipPath id="a59d972061"><path d="M 106.953125 138.554688 L 864 138.554688 L 864 896 L 106.953125 896 Z M 106.953125 138.554688 " clip-rule="nonzero"/></clipPath><clipPath id="a9433d8f6f"><path d="M 485.421875 188.578125 C 397.683594 188.578125 315.207031 222.746094 253.167969 284.785156 C 191.128906 346.820312 156.964844 429.285156 156.964844 517.023438 C 156.964844 604.761719 191.128906 687.238281 253.167969 749.277344 C 315.207031 811.316406 397.683594 845.480469 485.421875 845.480469 C 573.160156 845.480469 655.636719 811.316406 717.675781 749.277344 C 779.714844 687.238281 813.878906 604.761719 813.878906 517.023438 C 813.878906 429.285156 779.714844 346.808594 717.675781 284.769531 C 655.636719 222.730469 573.160156 188.566406 485.421875 188.566406 M 485.421875 895.480469 C 384.324219 895.480469 289.289062 856.109375 217.804688 784.625 C 146.324219 713.140625 106.953125 618.121094 106.953125 517.023438 C 106.953125 415.925781 146.324219 320.890625 217.804688 249.410156 C 289.289062 177.925781 384.324219 138.554688 485.421875 138.554688 C 586.519531 138.554688 681.554688 177.925781 753.039062 249.410156 C 824.523438 320.890625 863.890625 415.925781 863.890625 517.023438 C 863.890625 618.121094 824.523438 713.15625 753.039062 784.640625 C 681.554688 856.125 586.519531 895.492188 485.421875 895.492188 " clip-rule="nonzero"/></clipPath><clipPath id="3699eeb8b1"><path d="M 966.941406 218.632812 L 1059.898438 218.632812 L 1059.898438 421.613281 L 966.941406 421.613281 Z M 966.941406 218.632812 " clip-rule="nonzero"/></clipPath><clipPath id="2604d76bf3"><path d="M 1016.257812 308.761719 L 1059.894531 308.761719 L 1059.894531 371.683594 C 1059.894531 403.429688 1044.023438 421.558594 1013.417969 421.558594 C 982.8125 421.558594 966.941406 403.414062 966.941406 371.667969 L 966.941406 268.507812 C 966.941406 236.773438 982.8125 218.632812 1013.417969 218.632812 C 1044.023438 218.632812 1059.894531 236.773438 1059.894531 268.507812 L 1059.894531 287.777344 L 1030.417969 287.777344 L 1030.417969 266.523438 C 1030.417969 252.347656 1024.179688 246.964844 1014.261719 246.964844 C 1004.339844 246.964844 998.117188 252.363281 998.117188 266.523438 L 998.117188 373.652344 C 998.117188 387.828125 1004.351562 392.921875 1014.273438 392.921875 C 1024.195312 392.921875 1030.433594 387.828125 1030.433594 373.652344 L 1030.433594 337.09375 L 1016.257812 337.09375 Z M 1016.257812 308.761719 " clip-rule="nonzero"/></clipPath><clipPath id="2c1803f8f0"><path d="M 959.179688 458.953125 L 1136.191406 458.953125 L 1136.191406 838.558594 L 959.179688 838.558594 Z M 959.179688 458.953125 " clip-rule="nonzero"/></clipPath><clipPath id="8ddcf7b8ee"><path d="M 1017.480469 748.839844 C 1017.480469 775.34375 1029.140625 785.414062 1047.691406 785.414062 C 1066.242188 785.414062 1077.902344 775.34375 1077.902344 748.839844 L 1077.902344 548.511719 C 1077.890625 522.023438 1066.230469 511.953125 1047.691406 511.953125 C 1029.15625 511.953125 1017.480469 522.023438 1017.480469 548.511719 Z M 959.179688 552.222656 C 959.179688 492.871094 990.449219 458.953125 1047.691406 458.953125 C 1104.933594 458.953125 1136.191406 492.871094 1136.191406 552.222656 L 1136.191406 745.132812 C 1136.191406 804.492188 1104.921875 838.398438 1047.691406 838.398438 C 990.464844 838.398438 959.179688 804.492188 959.179688 745.132812 Z M 959.179688 552.222656 " clip-rule="nonzero"/></clipPath><clipPath id="63b3061940"><path d="M 1107.222656 220.898438 L 1204.148438 220.898438 L 1204.148438 419.292969 L 1107.222656 419.292969 Z M 1107.222656 220.898438 " clip-rule="nonzero"/></clipPath><clipPath id="d43c0bd896"><path d="M 1138.398438 249.234375 L 1138.398438 310.171875 L 1150.589844 310.171875 C 1162.210938 310.171875 1169.289062 305.074219 1169.289062 289.203125 L 1169.289062 269.644531 C 1169.289062 255.472656 1164.480469 249.234375 1153.417969 249.234375 Z M 1172.402344 419.285156 C 1170.703125 414.191406 1169.5625 411.0625 1169.5625 394.917969 L 1169.5625 363.730469 C 1169.5625 345.300781 1163.324219 338.507812 1149.164062 338.507812 L 1138.398438 338.507812 L 1138.398438 419.273438 L 1107.222656 419.273438 L 1107.222656 220.898438 L 1154.273438 220.898438 C 1186.578125 220.898438 1200.464844 235.914062 1200.464844 266.535156 L 1200.464844 282.109375 C 1200.464844 302.519531 1193.941406 315.839844 1180.054688 322.347656 C 1195.640625 328.871094 1200.738281 343.886719 1200.738281 364.574219 L 1200.738281 395.175781 C 1200.738281 404.8125 1201.023438 411.894531 1204.136719 419.273438 Z M 1172.402344 419.285156 " clip-rule="nonzero"/></clipPath><clipPath id="32c88a8016"><path d="M 1171.699219 463.191406 L 1346 463.191406 L 1346 839 L 1171.699219 839 Z M 1171.699219 463.191406 " clip-rule="nonzero"/></clipPath><clipPath id="bd233e9c50"><path d="M 1230 463.191406 L 1230 749.371094 C 1230 775.871094 1241.660156 785.414062 1260.210938 785.414062 C 1278.761719 785.414062 1290.421875 775.871094 1290.421875 749.371094 L 1290.421875 463.191406 L 1345.542969 463.191406 L 1345.542969 745.660156 C 1345.542969 805.023438 1315.863281 838.929688 1258.621094 838.929688 C 1201.378906 838.929688 1171.699219 805.023438 1171.699219 745.660156 L 1171.699219 463.191406 Z M 1230 463.191406 " clip-rule="nonzero"/></clipPath><clipPath id="6ba0937237"><path d="M 1248.355469 220.898438 L 1333.375 220.898438 L 1333.375 249.230469 L 1248.355469 249.230469 Z M 1248.355469 249.230469 L 1279.53125 249.230469 L 1279.53125 304.503906 L 1248.355469 304.503906 Z M 1248.355469 304.503906 L 1322.324219 304.503906 L 1322.324219 332.851562 L 1248.355469 332.851562 Z M 1248.355469 332.851562 L 1279.53125 332.851562 L 1279.53125 390.949219 L 1248.355469 390.949219 Z M 1248.355469 390.949219 L 1333.375 390.949219 L 1333.375 419.285156 L 1248.355469 419.285156 Z M 1248.355469 390.949219 " clip-rule="nonzero"/></clipPath><clipPath id="5032665aa0"><path d="M 1371.632812 220.898438 L 1480.746094 220.898438 L 1480.746094 419.515625 L 1371.632812 419.515625 Z M 1371.632812 220.898438 " clip-rule="nonzero"/></clipPath><clipPath id="dd8ae57611"><path d="M 1409.605469 356.363281 L 1439.636719 356.363281 L 1424.632812 256.039062 Z M 1480.734375 419.285156 L 1449.285156 419.285156 L 1443.90625 383.296875 L 1405.648438 383.296875 L 1400.265625 419.285156 L 1371.632812 419.285156 L 1403.378906 220.898438 L 1449 220.898438 Z M 1480.734375 419.285156 " clip-rule="nonzero"/></clipPath><clipPath id="3b06867791"><path d="M 1368.84375 463.191406 L 1549.035156 463.191406 L 1549.035156 516.191406 L 1368.84375 516.191406 Z M 1429.796875 516.191406 L 1488.085938 516.191406 L 1488.085938 834.171875 L 1429.796875 834.171875 Z M 1429.796875 516.191406 " clip-rule="nonzero"/></clipPath><clipPath id="2b6d99d1d8"><path d="M 1513.332031 220.898438 L 1609.6875 220.898438 L 1609.6875 249.230469 L 1513.332031 249.230469 Z M 1545.921875 249.230469 L 1577.097656 249.230469 L 1577.097656 419.285156 L 1545.921875 419.285156 Z M 1545.921875 249.230469 " clip-rule="nonzero"/></clipPath><clipPath id="a64146bc22"><path d="M 1575 463.191406 L 1748 463.191406 L 1748 834.375 L 1575 834.375 Z M 1575 463.191406 " clip-rule="nonzero"/></clipPath><clipPath id="6828479ef9"><path d="M 1633.300781 516.191406 L 1633.300781 641.792969 L 1660.847656 641.792969 C 1679.398438 641.792969 1689.46875 633.3125 1689.46875 606.8125 L 1689.46875 551.160156 C 1689.46875 524.671875 1679.398438 516.191406 1660.847656 516.191406 Z M 1747.769531 554.882812 L 1747.769531 603.113281 C 1747.769531 662.476562 1719.148438 694.804688 1660.847656 694.804688 L 1633.300781 694.804688 L 1633.300781 834.171875 L 1575 834.171875 L 1575 463.191406 L 1660.847656 463.191406 C 1719.148438 463.191406 1747.769531 495.523438 1747.769531 554.871094 " clip-rule="nonzero"/></clipPath><clipPath id="b67694983a"><path d="M 1721.628906 220.898438 L 1752.804688 220.898438 L 1752.804688 390.949219 L 1721.628906 390.949219 Z M 1721.628906 390.949219 L 1804.109375 390.949219 L 1804.109375 419.285156 L 1721.628906 419.285156 Z M 1721.628906 390.949219 " clip-rule="nonzero"/></clipPath><clipPath id="e069bf2554"><path d="M 1773.203125 458.953125 L 1950.214844 458.953125 L 1950.214844 838.558594 L 1773.203125 838.558594 Z M 1773.203125 458.953125 " clip-rule="nonzero"/></clipPath><clipPath id="806d19de69"><path d="M 1831.503906 748.839844 C 1831.503906 775.34375 1843.167969 785.414062 1861.714844 785.414062 C 1880.265625 785.414062 1891.925781 775.34375 1891.925781 748.839844 L 1891.925781 548.511719 C 1891.914062 522.023438 1880.253906 511.953125 1861.714844 511.953125 C 1843.179688 511.953125 1831.503906 522.023438 1831.503906 548.511719 Z M 1773.203125 552.222656 C 1773.203125 492.871094 1804.476562 458.953125 1861.714844 458.953125 C 1918.957031 458.953125 1950.214844 492.871094 1950.214844 552.222656 L 1950.214844 745.132812 C 1950.214844 804.492188 1918.945312 838.398438 1861.714844 838.398438 C 1804.488281 838.398438 1773.203125 804.492188 1773.203125 745.132812 Z M 1773.203125 552.222656 " clip-rule="nonzero"/></clipPath><clipPath id="2e494125cb"><path d="M 1836.6875 220.898438 L 1945.800781 220.898438 L 1945.800781 419.515625 L 1836.6875 419.515625 Z M 1836.6875 220.898438 " clip-rule="nonzero"/></clipPath><clipPath id="0d776ea7c2"><path d="M 1874.660156 356.363281 L 1904.695312 356.363281 L 1889.691406 256.039062 Z M 1945.789062 419.285156 L 1914.34375 419.285156 L 1908.960938 383.296875 L 1870.703125 383.296875 L 1865.324219 419.285156 L 1836.6875 419.285156 L 1868.433594 220.898438 L 1914.058594 220.898438 Z M 1945.789062 419.285156 " clip-rule="nonzero"/></clipPath><clipPath id="9d8ff597bd"><path d="M 1987.457031 220.898438 L 2091 220.898438 L 2091 419.5625 L 1987.457031 419.5625 Z M 1987.457031 220.898438 " clip-rule="nonzero"/></clipPath><clipPath id="6821f33345"><path d="M 2028.269531 340.21875 L 2018.632812 358.359375 L 2018.632812 419.296875 L 1987.457031 419.296875 L 1987.457031 220.898438 L 2018.632812 220.898438 L 2018.632812 307.34375 L 2059.445312 220.898438 L 2090.617188 220.898438 L 2047.253906 309.328125 L 2090.617188 419.285156 L 2058.585938 419.285156 Z M 2028.269531 340.21875 " clip-rule="nonzero"/></clipPath><clipPath id="c1cd4daedc"><path d="M 1979.363281 458.953125 L 2153.871094 458.953125 L 2153.871094 838.523438 L 1979.363281 838.523438 Z M 1979.363281 458.953125 " clip-rule="nonzero"/></clipPath><clipPath id="850ed82454"><path d="M 2066.800781 458.953125 C 2123.511719 458.953125 2152.664062 492.871094 2152.664062 552.222656 L 2152.664062 563.882812 L 2097.539062 563.882812 L 2097.539062 548.511719 C 2097.539062 522.011719 2086.941406 511.941406 2068.390625 511.941406 C 2049.839844 511.941406 2039.253906 522.023438 2039.253906 548.511719 C 2039.253906 624.832031 2153.191406 639.128906 2153.191406 745.132812 C 2153.191406 804.492188 2123.511719 838.398438 2066.285156 838.398438 C 2009.054688 838.398438 1979.363281 804.492188 1979.363281 745.132812 L 1979.363281 722.339844 L 2034.484375 722.339844 L 2034.484375 748.839844 C 2034.484375 775.34375 2046.144531 784.882812 2064.695312 784.882812 C 2083.246094 784.882812 2094.90625 775.34375 2094.90625 748.839844 C 2094.90625 672.519531 1980.964844 658.222656 1980.964844 552.222656 C 1980.953125 492.871094 2010.101562 458.953125 2066.800781 458.953125 " clip-rule="nonzero"/></clipPath><clipPath id="e88c98d1ec"><path d="M 2131.988281 220.898438 L 2217.007812 220.898438 L 2217.007812 249.230469 L 2131.988281 249.230469 Z M 2131.988281 249.230469 L 2163.164062 249.230469 L 2163.164062 304.503906 L 2131.988281 304.503906 Z M 2131.988281 304.503906 L 2205.957031 304.503906 L 2205.957031 332.851562 L 2131.988281 332.851562 Z M 2131.988281 332.851562 L 2163.164062 332.851562 L 2163.164062 390.949219 L 2131.988281 390.949219 Z M 2131.988281 390.949219 L 2217.007812 390.949219 L 2217.007812 419.285156 L 2131.988281 419.285156 Z M 2131.988281 390.949219 " clip-rule="nonzero"/></clipPath><clipPath id="56e5654479"><path d="M 2170.148438 463.191406 L 2350.339844 463.191406 L 2350.339844 516.191406 L 2170.148438 516.191406 Z M 2231.101562 516.191406 L 2289.386719 516.191406 L 2289.386719 834.171875 L 2231.101562 834.171875 Z M 2231.101562 516.191406 " clip-rule="nonzero"/></clipPath><clipPath id="9ad5b5d003"><path d="M 2258.667969 218.628906 L 2351.625 218.628906 L 2351.625 421.609375 L 2258.667969 421.609375 Z M 2258.667969 218.628906 " clip-rule="nonzero"/></clipPath><clipPath id="80b9941717"><path d="M 2305.429688 218.628906 C 2335.75 218.628906 2351.335938 236.773438 2351.335938 268.503906 L 2351.335938 274.742188 L 2321.875 274.742188 L 2321.875 266.519531 C 2321.875 252.347656 2316.207031 246.964844 2306.285156 246.964844 C 2296.367188 246.964844 2290.6875 252.359375 2290.6875 266.519531 C 2290.6875 307.332031 2351.625 314.984375 2351.625 371.667969 C 2351.625 403.414062 2335.75 421.542969 2305.144531 421.542969 C 2274.539062 421.542969 2258.667969 403.414062 2258.667969 371.667969 L 2258.667969 359.476562 L 2288.144531 359.476562 L 2288.144531 373.652344 C 2288.144531 387.824219 2294.382812 392.921875 2304.300781 392.921875 C 2314.222656 392.921875 2320.460938 387.824219 2320.460938 373.652344 C 2320.449219 332.839844 2259.511719 325.191406 2259.511719 268.503906 C 2259.511719 236.773438 2275.113281 218.628906 2305.429688 218.628906 " clip-rule="nonzero"/></clipPath></defs><g clip-path="url(#6086736183)"><g clip-path="url(#5165312902)"><path fill="#5999da" d="M 100.15625 131.757812 L 870.683594 131.757812 L 870.683594 902.285156 L 100.15625 902.285156 Z M 100.15625 131.757812 " fill-opacity="1" fill-rule="nonzero"/></g></g><g clip-path="url(#a69c057f56)"><g clip-path="url(#02c08867dc)"><path fill="#000000" d="M 100.15625 131.757812 L 870.683594 131.757812 L 870.683594 902.285156 L 100.15625 902.285156 Z M 100.15625 131.757812 " fill-opacity="1" fill-rule="nonzero"/></g></g><g clip-path="url(#ca274170af)"><g clip-path="url(#0ae268d4dd)"><path fill="#ffffff" d="M 100.15625 131.757812 L 870.683594 131.757812 L 870.683594 902.285156 L 100.15625 902.285156 Z M 100.15625 131.757812 " fill-opacity="1" fill-rule="nonzero"/></g></g><g clip-path="url(#c5c4f1480f)"><g clip-path="url(#d55e56aa47)"><path fill="#ffffff" d="M 100.15625 131.757812 L 870.683594 131.757812 L 870.683594 902.285156 L 100.15625 902.285156 Z M 100.15625 131.757812 " fill-opacity="1" fill-rule="nonzero"/></g></g><g clip-path="url(#64c6c5c22b)"><g clip-path="url(#954f08913c)"><path fill="#ffffff" d="M 100.15625 131.757812 L 870.683594 131.757812 L 870.683594 902.285156 L 100.15625 902.285156 Z M 100.15625 131.757812 " fill-opacity="1" fill-rule="nonzero"/></g></g><g clip-path="url(#ace1fa50d3)"><g clip-path="url(#60cb64a7cb)"><path fill="#3a5d93" d="M 100.15625 131.757812 L 870.683594 131.757812 L 870.683594 902.285156 L 100.15625 902.285156 Z M 100.15625 131.757812 " fill-opacity="1" fill-rule="nonzero"/></g></g><g clip-path="url(#bb2e11f111)"><g clip-path="url(#50c9b9266f)"><path fill="#ffffff" d="M 100.15625 131.757812 L 870.683594 131.757812 L 870.683594 902.285156 L 100.15625 902.285156 Z M 100.15625 131.757812 " fill-opacity="1" fill-rule="nonzero"/></g></g><g clip-path="url(#a59d972061)"><g clip-path="url(#a9433d8f6f)"><path fill="#000000" d="M 100.15625 131.757812 L 870.683594 131.757812 L 870.683594 902.285156 L 100.15625 902.285156 Z M 100.15625 131.757812 " fill-opacity="1" fill-rule="nonzero"/></g></g><g clip-path="url(#3699eeb8b1)"><g clip-path="url(#2604d76bf3)"><path fill="#000000" d="M 966.941406 218.632812 L 1059.898438 218.632812 L 1059.898438 421.613281 L 966.941406 421.613281 Z M 966.941406 218.632812 " fill-opacity="1" fill-rule="nonzero"/></g></g><g clip-path="url(#2c1803f8f0)"><g clip-path="url(#8ddcf7b8ee)"><path fill="#000000" d="M 959.179688 458.953125 L 1136.191406 458.953125 L 1136.191406 838.558594 L 959.179688 838.558594 Z M 959.179688 458.953125 " fill-opacity="1" fill-rule="nonzero"/></g></g><g clip-path="url(#63b3061940)"><g clip-path="url(#d43c0bd896)"><path fill="#000000" d="M 1107.222656 220.898438 L 1204.148438 220.898438 L 1204.148438 419.292969 L 1107.222656 419.292969 Z M 1107.222656 220.898438 " fill-opacity="1" fill-rule="nonzero"/></g></g><g clip-path="url(#32c88a8016)"><g clip-path="url(#bd233e9c50)"><path fill="#000000" d="M 1171.699219 463.191406 L 1345.527344 463.191406 L 1345.527344 838.691406 L 1171.699219 838.691406 Z M 1171.699219 463.191406 " fill-opacity="1" fill-rule="nonzero"/></g></g><g clip-path="url(#6ba0937237)"><path fill="#000000" d="M 1248.355469 220.898438 L 1333.378906 220.898438 L 1333.378906 419.171875 L 1248.355469 419.171875 Z M 1248.355469 220.898438 " fill-opacity="1" fill-rule="nonzero"/></g><g clip-path="url(#5032665aa0)"><g clip-path="url(#dd8ae57611)"><path fill="#000000" d="M 1371.632812 220.898438 L 1480.746094 220.898438 L 1480.746094 419.089844 L 1371.632812 419.089844 Z M 1371.632812 220.898438 " fill-opacity="1" fill-rule="nonzero"/></g></g><g clip-path="url(#3b06867791)"><path fill="#000000" d="M 1368.84375 463.191406 L 1549.035156 463.191406 L 1549.035156 834.128906 L 1368.84375 834.128906 Z M 1368.84375 463.191406 " fill-opacity="1" fill-rule="nonzero"/></g><g clip-path="url(#2b6d99d1d8)"><path fill="#000000" d="M 1513.332031 220.898438 L 1609.691406 220.898438 L 1609.691406 419.261719 L 1513.332031 419.261719 Z M 1513.332031 220.898438 " fill-opacity="1" fill-rule="nonzero"/></g><g clip-path="url(#a64146bc22)"><g clip-path="url(#6828479ef9)"><path fill="#000000" d="M 1575 463.191406 L 1747.769531 463.191406 L 1747.769531 834.375 L 1575 834.375 Z M 1575 463.191406 " fill-opacity="1" fill-rule="nonzero"/></g></g><g clip-path="url(#b67694983a)"><path fill="#3a5d93" d="M 1721.628906 220.898438 L 1804.101562 220.898438 L 1804.101562 419.347656 L 1721.628906 419.347656 Z M 1721.628906 220.898438 " fill-opacity="1" fill-rule="nonzero"/></g><g clip-path="url(#e069bf2554)"><g clip-path="url(#806d19de69)"><path fill="#000000" d="M 1773.203125 458.953125 L 1950.214844 458.953125 L 1950.214844 838.558594 L 1773.203125 838.558594 Z M 1773.203125 458.953125 " fill-opacity="1" fill-rule="nonzero"/></g></g><g clip-path="url(#2e494125cb)"><g clip-path="url(#0d776ea7c2)"><path fill="#3a5d93" d="M 1836.6875 220.898438 L 1945.800781 220.898438 L 1945.800781 419.089844 L 1836.6875 419.089844 Z M 1836.6875 220.898438 " fill-opacity="1" fill-rule="nonzero"/></g></g><g clip-path="url(#9d8ff597bd)"><g clip-path="url(#6821f33345)"><path fill="#3a5d93" d="M 1987.457031 220.898438 L 2090.617188 220.898438 L 2090.617188 419.160156 L 1987.457031 419.160156 Z M 1987.457031 220.898438 " fill-opacity="1" fill-rule="nonzero"/></g></g><g clip-path="url(#c1cd4daedc)"><g clip-path="url(#850ed82454)"><path fill="#000000" d="M 1979.363281 458.953125 L 2153.191406 458.953125 L 2153.191406 838.523438 L 1979.363281 838.523438 Z M 1979.363281 458.953125 " fill-opacity="1" fill-rule="nonzero"/></g></g><g clip-path="url(#e88c98d1ec)"><path fill="#3a5d93" d="M 2131.988281 220.898438 L 2217.011719 220.898438 L 2217.011719 419.171875 L 2131.988281 419.171875 Z M 2131.988281 220.898438 " fill-opacity="1" fill-rule="nonzero"/></g><g clip-path="url(#56e5654479)"><path fill="#000000" d="M 2170.148438 463.191406 L 2350.339844 463.191406 L 2350.339844 834.128906 L 2170.148438 834.128906 Z M 2170.148438 463.191406 " fill-opacity="1" fill-rule="nonzero"/></g><g clip-path="url(#9ad5b5d003)"><g clip-path="url(#80b9941717)"><path fill="#3a5d93" d="M 2258.667969 218.628906 L 2351.625 218.628906 L 2351.625 421.609375 L 2258.667969 421.609375 Z M 2258.667969 218.628906 " fill-opacity="1" fill-rule="nonzero"/></g></g></svg>